<?xml version="1.0" encoding="UTF-8" standalone="no"?>
<svg width="31px" height="84px" viewBox="0 0 31 84" version="1.1" xmlns="http://www.w3.org/2000/svg" xmlns:xlink="http://www.w3.org/1999/xlink" xmlns:sketch="http://www.bohemiancoding.com/sketch/ns">
    <!-- Generator: Sketch 3.5.1 (25234) - http://www.bohemiancoding.com/sketch -->
    <title>Page 1</title>
    <desc>Created with Sketch.</desc>
    <defs>
        <rect id="path-1" x="0" y="0" width="32" height="85"></rect>
        <path id="path-3" d="M269.999949,81.6837 C274.443027,81.6837 278.717549,83.5157875 281.935871,86.80045 L286.639665,91.6007375 L286.639665,41.600875 C286.639665,29.684425 277.631032,20.023225 266.517274,20.023225 L17.5060194,20.023225 C13.8572141,20.023225 10.4254697,18.296625 8.25122318,15.367225 L2.20504736,7.22165 L2.20504736,60.10605 C2.20504736,72.0225 11.2136796,81.6837 22.3274384,81.6837 L269.999949,81.6837 Z"></path>
        <path id="path-4" d="M269.999949,81.6837 C274.443027,81.6837 278.717549,83.5157875 281.935871,86.80045 L286.639665,91.6007375 L286.639665,41.600875 C286.639665,29.684425 277.631032,20.023225 266.517274,20.023225 L17.5060194,20.023225 C13.8572141,20.023225 10.4254697,18.296625 8.25122318,15.367225 L2.20504736,7.22165 L2.20504736,60.10605 C2.20504736,72.0225 11.2136796,81.6837 22.3274384,81.6837 L269.999949,81.6837 Z"></path>
        <path id="path-5" d="M0,0.550475 L269,0.550475 L269,97 L0,97 L0,0.550475 Z"></path>
    </defs>
    <g id="Welcome" stroke="none" stroke-width="1" fill="none" fill-rule="evenodd" sketch:type="MSPage">
        <g id="Home" sketch:type="MSArtboardGroup" transform="translate(-967.000000, -689.000000)">
            <g id="Page-1" sketch:type="MSLayerGroup" transform="translate(966.000000, 689.000000)">
                <mask id="mask-2" sketch:name="Mask" fill="white">
                    <use xlink:href="#path-1"></use>
                </mask>
                <use id="Mask" sketch:type="MSShapeGroup" xlink:href="#path-1"></use>
                <g mask="url(#mask-2)">
                    <g transform="translate(1.000000, 0.000000)">
                        <g id="Fill-1">
                            <use fill="#28AC74" fill-rule="evenodd" sketch:type="MSShapeGroup" xlink:href="#path-3"></use>
                            <use fill="none" xlink:href="#path-3"></use>
                        </g>
                        <g id="Fill-1">
                            <use fill="#28AC74" fill-rule="evenodd" sketch:type="MSShapeGroup" xlink:href="#path-4"></use>
                            <use fill="none" xlink:href="#path-4"></use>
                        </g>
                        <g id="Group-5" stroke-width="1" fill="none" fill-rule="evenodd" sketch:type="MSLayerGroup">
                            <mask id="mask-6" sketch:name="Clip 4" fill="white">
                                <use xlink:href="#path-5"></use>
                            </mask>
                            <g id="Clip-4"></g>
                            <path d="M4.40985219,13.89234 L4.40985219,60.105565 C4.40985219,70.78769 12.44838,79.47889 22.3264683,79.47889 L269.998978,79.47889 C275.060498,79.47889 279.858877,81.5316525 283.51132,85.2588775 L284.435345,86.20099 L284.435345,41.6016025 C284.435345,30.9194775 276.396817,22.2282775 266.516304,22.2282775 L17.5062619,22.2282775 C13.1808088,22.2282775 9.05907764,20.1549025 6.4798125,16.68109 L4.40985219,13.89234 Z M288.84447,96.999515 L280.360906,88.3434775 C277.545178,85.471065 273.866057,83.88754 269.998978,83.88754 L22.3264683,83.88754 C10.0158431,83.88754 -0.000485052212,73.219965 -0.000485052212,60.105565 L-0.000485052212,0.54999 L10.0206937,14.0536025 C11.7717321,16.411915 14.5704834,17.8196275 17.5062619,17.8196275 L266.516304,17.8196275 C278.829354,17.8196275 288.84447,28.4872025 288.84447,41.6016025 L288.84447,96.999515 Z" id="Fill-3" fill="#FFFFFF" sketch:type="MSShapeGroup" mask="url(#mask-6)"></path>
                        </g>
                    </g>
                </g>
            </g>
        </g>
    </g>
</svg>