<?xml version="1.0" encoding="UTF-8" standalone="no"?>
<svg width="39px" height="40px" viewBox="0 0 39 40" version="1.1" xmlns="http://www.w3.org/2000/svg" xmlns:xlink="http://www.w3.org/1999/xlink" xmlns:sketch="http://www.bohemiancoding.com/sketch/ns">
    <!-- Generator: Sketch 3.5.1 (25234) - http://www.bohemiancoding.com/sketch -->
    <title>Shape</title>
    <desc>Created with Sketch.</desc>
    <defs></defs>
    <g id="Welcome" stroke="none" stroke-width="1" fill="none" fill-rule="evenodd" sketch:type="MSPage">
        <g id="Tours" sketch:type="MSArtboardGroup" transform="translate(-788.000000, -1840.000000)" fill="#F6F7F0">
            <path d="M822.836322,1840 L791.870702,1840 C789.741816,1840 788,1841.8 788,1844 L788,1876 C788,1878.2 789.741816,1880 791.870702,1880 L822.836322,1880 C824.965208,1880 826.707024,1878.2 826.707024,1876 L826.707024,1844 C826.707024,1841.8 824.965208,1840 822.836322,1840 L822.836322,1840 Z M820.900971,1844 L820.900971,1850 L817.030268,1850 C815.869058,1850 815.094917,1850.8 815.094917,1852 L815.094917,1856 L820.900971,1856 L820.900971,1862 L815.094917,1862 L815.094917,1876 L809.288863,1876 L809.288863,1862 L805.418161,1862 L805.418161,1856 L809.288863,1856 L809.288863,1851 C809.288863,1847.2 812.385425,1844 816.062593,1844 L820.900971,1844 L820.900971,1844 Z" id="Shape" sketch:type="MSShapeGroup"></path>
        </g>
    </g>
</svg>