<?xml version="1.0" encoding="UTF-8" standalone="no"?>
<svg width="40px" height="40px" viewBox="0 0 40 40" version="1.1" xmlns="http://www.w3.org/2000/svg" xmlns:xlink="http://www.w3.org/1999/xlink" xmlns:sketch="http://www.bohemiancoding.com/sketch/ns">
    <!-- Generator: Sketch 3.5.1 (25234) - http://www.bohemiancoding.com/sketch -->
    <title>Shape</title>
    <desc>Created with Sketch.</desc>
    <defs></defs>
    <g id="Welcome" stroke="none" stroke-width="1" fill="none" fill-rule="evenodd" sketch:type="MSPage">
        <g id="Tours" sketch:type="MSArtboardGroup" transform="translate(-789.000000, -1898.000000)" fill="#F6F7F0">
            <path d="M824.806592,1898 L792.97851,1898 C790.79033,1898 789,1899.8 789,1902 L789,1934 C789,1936.2 790.79033,1938 792.97851,1938 L824.806592,1938 C826.994773,1938 828.785102,1936.2 828.785102,1934 L828.785102,1902 C828.785102,1899.8 826.994773,1898 824.806592,1898 L824.806592,1898 Z M808.892551,1910 C813.268912,1910 816.849572,1913.6 816.849572,1918 C816.849572,1922.4 813.268912,1926 808.892551,1926 C804.51619,1926 800.935531,1922.4 800.935531,1918 C800.935531,1913.6 804.51619,1910 808.892551,1910 L808.892551,1910 Z M793.973138,1934 C793.376361,1934 792.97851,1933.6 792.97851,1933 L792.97851,1916 L797.155946,1916 C796.95702,1916.6 796.95702,1917.4 796.95702,1918 C796.95702,1924.6 802.328009,1930 808.892551,1930 C815.457093,1930 820.828082,1924.6 820.828082,1918 C820.828082,1917.4 820.828082,1916.6 820.629156,1916 L824.806592,1916 L824.806592,1933 C824.806592,1933.6 824.408741,1934 823.811965,1934 L793.973138,1934 L793.973138,1934 Z M824.806592,1907 C824.806592,1907.6 824.408741,1908 823.811965,1908 L819.833454,1908 C819.236678,1908 818.838827,1907.6 818.838827,1907 L818.838827,1903 C818.838827,1902.4 819.236678,1902 819.833454,1902 L823.811965,1902 C824.408741,1902 824.806592,1902.4 824.806592,1903 L824.806592,1907 L824.806592,1907 Z" id="Shape" sketch:type="MSShapeGroup"></path>
        </g>
    </g>
</svg>