<?xml version="1.0" encoding="UTF-8" standalone="no"?>
<svg width="252px" height="92px" viewBox="0 0 252 92" version="1.1" xmlns="http://www.w3.org/2000/svg" xmlns:xlink="http://www.w3.org/1999/xlink" xmlns:sketch="http://www.bohemiancoding.com/sketch/ns">
    <!-- Generator: Sketch 3.5.1 (25234) - http://www.bohemiancoding.com/sketch -->
    <title>Logo - white</title>
    <desc>Created with Sketch.</desc>
    <defs>
        <path id="path-1" d="M0,0.288119403 L251.674895,0.288119403 L251.674895,92 L0,92 L0,0.288119403 Z"></path>
        <path id="path-3" d="M0,0.288119403 L251.674895,0.288119403 L251.674895,92 L0,92 L0,0.288119403 Z"></path>
    </defs>
    <g id="Welcome" stroke="none" stroke-width="1" fill="none" fill-rule="evenodd" sketch:type="MSPage">
        <g id="Tours" sketch:type="MSArtboardGroup" transform="translate(-522.000000, -68.000000)">
            <g id="Logo---white" sketch:type="MSLayerGroup" transform="translate(522.000000, 68.000000)">
                <path d="M204.540715,69.9777388 L201.986953,69.9777388 L201.986953,72.6344851 L204.540715,72.6344851 C204.725224,72.6344851 204.81608,72.5428731 204.81608,72.3596493 L204.81608,70.2525746 C204.81608,70.0679627 204.725224,69.9777388 204.540715,69.9777388" id="Fill-1" fill="#FFFFFF" sketch:type="MSShapeGroup"></path>
                <path d="M176.845742,70.0074433 L174.370256,70.0074433 C174.185748,70.0074433 174.092096,70.0990552 174.092096,70.2822791 L174.092096,76.1468313 C174.092096,76.3300552 174.185748,76.4216672 174.370256,76.4216672 L176.845742,76.4216672 C177.03025,76.4216672 177.122504,76.3300552 177.122504,76.1468313 L177.122504,70.2822791 C177.122504,70.0990552 177.03025,70.0074433 176.845742,70.0074433" id="Fill-3" fill="#FFFFFF" sketch:type="MSShapeGroup"></path>
                <g id="Group-7">
                    <mask id="mask-2" sketch:name="Clip 6" fill="white">
                        <use xlink:href="#path-1"></use>
                    </mask>
                    <g id="Clip-6"></g>
                    <path d="M220.848732,76.6359836 C220.848732,77.9796254 220.110699,78.7125209 218.757638,78.7125209 L214.927693,78.7125209 C213.574633,78.7125209 212.836599,77.9796254 212.836599,76.6359836 L212.836599,75.1077299 L215.327461,75.1077299 L215.327461,76.2389985 C215.327461,76.4222224 215.419715,76.5138343 215.604224,76.5138343 L217.987456,76.5138343 C218.171964,76.5138343 218.264218,76.4222224 218.264218,76.2389985 L218.264218,74.8787 C218.264218,74.7107448 218.156588,74.6496701 217.941329,74.6038642 L215.08145,74.0083866 C213.467003,73.6724761 212.867351,73.3074164 212.867351,71.8097 L212.867351,69.7942373 C212.867351,68.4505955 213.605384,67.7177 214.958445,67.7177 L218.571732,67.7177 C219.926191,67.7177 220.662826,68.4505955 220.662826,69.7942373 L220.662826,71.2142224 L218.171964,71.2142224 L218.171964,70.1912224 C218.171964,70.0079985 218.081108,69.9163866 217.896599,69.9163866 L215.727229,69.9163866 C215.542721,69.9163866 215.450467,70.0079985 215.450467,70.1912224 L215.450467,71.4432522 C215.450467,71.6112075 215.51197,71.6722821 215.773356,71.7333567 L218.633235,72.3135657 C220.247682,72.6342075 220.848732,73.0173119 220.848732,74.5136403 L220.848732,76.6359836 Z M205.169721,78.7125209 L203.495169,74.8037448 L201.986953,74.8037448 L201.986953,78.7125209 L199.403837,78.7125209 L199.403837,67.7177 L205.3095,67.7177 C206.662561,67.7177 207.400594,68.4505955 207.400594,69.7942373 L207.400594,72.7272075 C207.400594,73.7793567 206.954699,74.4525657 206.109036,74.6968642 L207.831113,78.7125209 L205.169721,78.7125209 Z M193.475809,76.6359836 C193.475809,77.9796254 192.737776,78.7125209 191.384715,78.7125209 L187.539395,78.7125209 C186.186334,78.7125209 185.448301,77.9796254 185.448301,76.6359836 L185.448301,67.7177 L188.031417,67.7177 L188.031417,76.1168493 C188.031417,76.3000731 188.123671,76.390297 188.309577,76.390297 L190.615931,76.390297 C190.800439,76.390297 190.891296,76.3000731 190.891296,76.1168493 L190.891296,67.7177 L193.475809,67.7177 L193.475809,76.6359836 Z M179.704782,76.6359836 C179.704782,77.9796254 178.966749,78.7125209 177.613688,78.7125209 L173.600633,78.7125209 C172.246174,78.7125209 171.509539,77.9796254 171.509539,76.6359836 L171.509539,69.7942373 C171.509539,68.4505955 172.246174,67.7177 173.600633,67.7177 L177.613688,67.7177 C178.966749,67.7177 179.704782,68.4505955 179.704782,69.7942373 L179.704782,76.6359836 Z M166.641036,70.0079985 L163.88739,70.0079985 L163.88739,78.7125209 L161.304273,78.7125209 L161.304273,70.0079985 L158.552025,70.0079985 L158.552025,67.7177 L166.641036,67.7177 L166.641036,70.0079985 Z M3.84182597,36.9458045 L3.84182597,4.1057 L232.219754,4.16955075 C240.827345,4.16955075 247.831671,11.6900582 247.831671,20.9331478 L247.831671,53.7538194 L236.12518,53.7538194 C235.834439,53.7385507 235.546494,53.7107896 235.254356,53.7107896 L19.4537431,53.7107896 C10.8461519,53.7107896 3.84182597,46.1902821 3.84182597,36.9458045 L3.84182597,36.9458045 Z M251.674196,20.9331478 C251.674196,9.5857597 242.946395,0.353774627 232.219754,0.353774627 L-0.000698895028,0.287147761 L-0.000698895028,36.9458045 C-0.000698895028,48.2945806 8.72710221,57.5265657 19.4537431,57.5265657 L139.216395,57.5265657 L122.803544,92.0004164 L236.752787,92.0004164 C244.98018,92.0004164 251.674196,84.1967448 251.674196,74.6066403 L251.674196,68.8725657 L251.674196,68.8725657 L251.674196,20.9331478 Z" id="Fill-5" fill="#FFFFFF" sketch:type="MSShapeGroup" mask="url(#mask-2)"></path>
                </g>
                <path d="M43.5819757,20.1729075 L43.5819757,38.4578179 L40.0008376,38.4578179 L32.8665171,26.0402358 L32.8665171,38.4578179 L29.3888155,38.4578179 L29.3888155,20.1729075 L33.2243514,20.1729075 L40.104274,32.1837881 L40.104274,20.1729075 L43.5819757,20.1729075 Z" id="Fill-8" fill="#FFFFFF" sketch:type="MSShapeGroup"></path>
                <mask id="mask-4" sketch:name="Clip 11" fill="white">
                    <use xlink:href="#path-3"></use>
                </mask>
                <g id="Clip-11"></g>
                <path d="M50.1834586,20.1734627 L53.8666354,20.1734627 L53.8666354,38.4583731 L50.1834586,38.4583731 L50.1834586,20.1734627 Z" id="Fill-10" fill="#FFFFFF" sketch:type="MSShapeGroup" mask="url(#mask-4)"></path>
                <path d="M63.6096514,38.4576791 C61.2837287,38.4576791 60.029911,37.2139776 60.029911,34.9014701 L60.029911,23.7289776 C60.029911,21.4178582 61.2837287,20.1727687 63.6096514,20.1727687 L69.5432702,20.1727687 C71.8705906,20.1727687 73.1244083,21.4178582 73.1244083,23.7289776 L73.1244083,26.6244701 L69.4412315,26.6244701 L69.4412315,24.0329627 C69.4412315,23.7026045 69.2623144,23.5249328 68.9296403,23.5249328 L64.2232812,23.5249328 C63.8906072,23.5249328 63.7116901,23.7026045 63.7116901,24.0329627 L63.7116901,34.5974851 C63.7116901,34.9278433 63.8906072,35.1055149 64.2232812,35.1055149 L68.9296403,35.1055149 C69.2623144,35.1055149 69.4412315,34.9278433 69.4412315,34.5974851 L69.4412315,32.0073657 L73.1244083,32.0073657 L73.1244083,34.9014701 C73.1244083,37.2139776 71.8705906,38.4576791 69.5432702,38.4576791 L63.6096514,38.4576791 Z" id="Fill-12" fill="#FFFFFF" sketch:type="MSShapeGroup" mask="url(#mask-4)"></path>
                <path d="M78.9566873,20.1729075 L82.6398641,20.1729075 L82.6398641,27.4352358 L88.9816376,27.4352358 L88.9816376,20.1729075 L92.6648144,20.1729075 L92.6648144,38.4578179 L88.9816376,38.4578179 L88.9816376,30.7874 L82.6398641,30.7874 L82.6398641,38.4578179 L78.9566873,38.4578179 L78.9566873,20.1729075 Z" id="Fill-13" fill="#FFFFFF" sketch:type="MSShapeGroup" mask="url(#mask-4)"></path>
                <path d="M102.511686,34.5970687 C102.511686,34.9274269 102.690603,35.1050985 103.023277,35.1050985 L108.06231,35.1050985 C108.393587,35.1050985 108.572504,34.9274269 108.572504,34.5970687 L108.572504,24.0339343 C108.572504,23.7021881 108.393587,23.5245164 108.06231,23.5245164 L103.023277,23.5245164 C102.690603,23.5245164 102.511686,23.7021881 102.511686,24.0339343 L102.511686,34.5970687 Z M102.409648,38.4572627 C100.083725,38.4572627 98.8299072,37.2135612 98.8299072,34.9024418 L98.8299072,23.7285612 C98.8299072,21.4174418 100.083725,20.1723522 102.409648,20.1723522 L108.674543,20.1723522 C111.001863,20.1723522 112.255681,21.4174418 112.255681,23.7285612 L112.255681,34.9024418 C112.255681,37.2135612 111.001863,38.4572627 108.674543,38.4572627 L102.409648,38.4572627 Z" id="Fill-14" fill="#FFFFFF" sketch:type="MSShapeGroup" mask="url(#mask-4)"></path>
                <path d="M122.105348,20.1729075 L122.105348,35.1056537 L129.828138,35.1056537 L129.828138,38.4578179 L118.422171,38.4578179 L118.422171,20.1729075 L122.105348,20.1729075 Z" id="Fill-15" fill="#FFFFFF" sketch:type="MSShapeGroup" mask="url(#mask-4)"></path>
                <path d="M178.220329,35.1554851 C178.553003,35.1554851 178.73192,34.9778134 178.73192,34.6488433 L178.73192,31.1939627 C178.73192,30.8636045 178.553003,30.6859328 178.220329,30.6859328 L172.952058,30.6859328 L172.952058,35.1554851 L178.220329,35.1554851 Z M178.016251,27.5378134 C178.348925,27.5378134 178.527843,27.3601418 178.527843,27.0297836 L178.527843,23.9816045 C178.527843,23.6526343 178.348925,23.4735746 178.016251,23.4735746 L172.952058,23.4735746 L172.952058,27.5378134 L178.016251,27.5378134 Z M178.629881,20.1727687 C180.957202,20.1727687 182.209622,21.4178582 182.209622,23.7289776 L182.209622,26.3690672 C182.209622,27.4614701 181.774909,28.4261716 180.59797,29.1118731 C181.876948,29.7212313 182.413699,30.7622761 182.413699,31.8546791 L182.413699,34.9014701 C182.413699,37.2125896 181.161279,38.4576791 178.833959,38.4576791 L169.270279,38.4576791 L169.270279,20.1727687 L178.629881,20.1727687 Z" id="Fill-16" fill="#FFFFFF" sketch:type="MSShapeGroup" mask="url(#mask-4)"></path>
                <path d="M194.615707,23.8301672 L192.595901,30.9911672 L196.635514,30.9911672 L194.615707,23.8301672 Z M191.648199,34.3433313 L190.497818,38.4575403 L186.610564,38.4575403 L192.467304,20.1726299 L196.91647,20.1726299 L202.77321,38.4575403 L198.732199,38.4575403 L197.581818,34.3433313 L191.648199,34.3433313 Z" id="Fill-17" fill="#FFFFFF" sketch:type="MSShapeGroup" mask="url(#mask-4)"></path>
                <path d="M212.801934,30.7378463 L211.446078,30.7378463 L211.446078,38.4582343 L207.764299,38.4582343 L207.764299,20.1733239 L211.446078,20.1733239 L211.446078,27.4870104 L212.827094,27.4870104 L217.83957,20.1733239 L222.03294,20.1733239 L215.920404,29.1124284 L222.288735,38.4582343 L217.966769,38.4582343 L212.801934,30.7378463 Z" id="Fill-18" fill="#FFFFFF" sketch:type="MSShapeGroup" mask="url(#mask-4)"></path>
                <path d="M153.941414,30.7171642 L144.036674,30.7171642 L144.036674,27.5676567 L153.941414,27.5676567 L153.941414,30.7171642 Z" id="Fill-19" fill="#FFFFFF" sketch:type="MSShapeGroup" mask="url(#mask-4)"></path>
            </g>
        </g>
    </g>
</svg>